<svg xmlns="http://www.w3.org/2000/svg" xmlns:xlink="http://www.w3.org/1999/xlink" width="500" zoomAndPan="magnify" viewBox="0 0 375 374.999991" height="500" preserveAspectRatio="xMidYMid meet" version="1.0"><defs><g/><clipPath id="43e56c5e2f"><path d="M 99.664062 94.945312 L 324 94.945312 L 324 317.460938 L 99.664062 317.460938 Z M 99.664062 94.945312 " clip-rule="nonzero"/></clipPath><clipPath id="b52366acb9"><path d="M 116.914062 94.945312 L 306.636719 94.945312 C 311.210938 94.945312 315.597656 96.761719 318.835938 99.996094 C 322.070312 103.234375 323.886719 107.621094 323.886719 112.195312 L 323.886719 299.964844 C 323.886719 304.539062 322.070312 308.925781 318.835938 312.160156 C 315.597656 315.394531 311.210938 317.214844 306.636719 317.214844 L 116.914062 317.214844 C 112.339844 317.214844 107.949219 315.394531 104.714844 312.160156 C 101.480469 308.925781 99.664062 304.539062 99.664062 299.964844 L 99.664062 112.195312 C 99.664062 107.621094 101.480469 103.234375 104.714844 99.996094 C 107.949219 96.761719 112.339844 94.945312 116.914062 94.945312 " clip-rule="nonzero"/></clipPath><clipPath id="65878f5ad1"><path d="M 51.113281 57.785156 L 285.339844 57.785156 L 285.339844 282.644531 L 51.113281 282.644531 Z M 51.113281 57.785156 " clip-rule="nonzero"/></clipPath><clipPath id="ff69a02bef"><path d="M 68.363281 57.785156 L 267.863281 57.785156 C 272.441406 57.785156 276.828125 59.605469 280.0625 62.839844 C 283.296875 66.074219 285.113281 70.460938 285.113281 75.035156 L 285.113281 264.761719 C 285.113281 269.335938 283.296875 273.722656 280.0625 276.957031 C 276.828125 280.191406 272.441406 282.011719 267.863281 282.011719 L 68.363281 282.011719 C 63.789062 282.011719 59.402344 280.191406 56.164062 276.957031 C 52.929688 273.722656 51.113281 269.335938 51.113281 264.761719 L 51.113281 75.035156 C 51.113281 70.460938 52.929688 66.074219 56.164062 62.839844 C 59.402344 59.605469 63.789062 57.785156 68.363281 57.785156 " clip-rule="nonzero"/></clipPath></defs><g clip-path="url(#43e56c5e2f)"><g clip-path="url(#b52366acb9)"><path fill="#80d9fb" d="M 99.664062 94.945312 L 324.523438 94.945312 L 324.523438 317.460938 L 99.664062 317.460938 Z M 99.664062 94.945312 " fill-opacity="1" fill-rule="nonzero"/></g></g><g clip-path="url(#65878f5ad1)"><g clip-path="url(#ff69a02bef)"><path fill="#5f3aff" d="M 51.113281 57.785156 L 285.339844 57.785156 L 285.339844 282.644531 L 51.113281 282.644531 Z M 51.113281 57.785156 " fill-opacity="1" fill-rule="nonzero"/></g></g><g fill="#ffffff" fill-opacity="1"><g transform="translate(103.460023, 231.079507)"><g><path d="M 63.640625 1.671875 C 52.921875 1.671875 43.46875 -0.554688 35.28125 -5.015625 C 27.101562 -9.472656 20.703125 -16.175781 16.078125 -25.125 C 11.460938 -34.082031 9.15625 -45.117188 9.15625 -58.234375 C 9.15625 -71.347656 11.460938 -82.378906 16.078125 -91.328125 C 20.703125 -100.273438 27.101562 -106.976562 35.28125 -111.4375 C 43.46875 -115.90625 52.921875 -118.140625 63.640625 -118.140625 C 74.847656 -118.140625 84.367188 -115.945312 92.203125 -111.5625 C 100.035156 -107.175781 105.625 -100.5 108.96875 -91.53125 L 92.171875 -81.25 L 90.171875 -81.328125 C 87.671875 -87.378906 84.285156 -91.71875 80.015625 -94.34375 C 75.742188 -96.976562 70.285156 -98.296875 63.640625 -98.296875 C 53.984375 -98.296875 46.445312 -95.09375 41.03125 -88.6875 C 35.613281 -82.289062 32.90625 -72.140625 32.90625 -58.234375 C 32.90625 -44.367188 35.613281 -34.234375 41.03125 -27.828125 C 46.445312 -21.429688 53.984375 -18.234375 63.640625 -18.234375 C 78.773438 -18.234375 88.046875 -25.59375 91.453125 -40.3125 L 93.4375 -40.3125 L 110.40625 -31.46875 C 107.21875 -20.414062 101.773438 -12.128906 94.078125 -6.609375 C 86.378906 -1.085938 76.234375 1.671875 63.640625 1.671875 Z M 63.640625 1.671875 "/></g></g></g></svg>